<mxfile host="app.diagrams.net" modified="2024-02-23T17:30:47.883Z" agent="Mozilla/5.0 (Windows NT 10.0; Win64; x64) AppleWebKit/537.36 (KHTML, like Gecko) Chrome/121.0.0.0 Safari/537.36" etag="a9nnybYXlYOqhHDZBZUi" version="23.1.5" type="github">
  <diagram name="Page-1" id="zKlpec7yXTdc-DUPFT4e">
    <mxGraphModel dx="798" dy="422" grid="1" gridSize="10" guides="1" tooltips="1" connect="1" arrows="1" fold="1" page="1" pageScale="1" pageWidth="3300" pageHeight="4681" math="0" shadow="0">
      <root>
        <mxCell id="0" />
        <mxCell id="1" parent="0" />
        <mxCell id="65U46AjyC3GscZr0AH_9-2" value="&lt;h1&gt;COMPETITION SOFTWARE&lt;/h1&gt;&lt;p&gt;Competition software similar to that of &quot;Smoothcomp&quot;.&lt;/p&gt;&lt;p&gt;Main goals:&lt;/p&gt;&lt;p&gt;&lt;/p&gt;&lt;ul&gt;&lt;li&gt;organizing competition events for combat sports (primarily grappling and bjj)&lt;/li&gt;&lt;li&gt;handling payments&lt;/li&gt;&lt;li&gt;organizing brackets&lt;/li&gt;&lt;li&gt;executing matches/fights&lt;/li&gt;&lt;li&gt;saving results&lt;/li&gt;&lt;li&gt;generating rankings&lt;/li&gt;&lt;/ul&gt;&lt;br&gt;Future goals to consider:&amp;nbsp;&lt;br&gt;&lt;ul&gt;&lt;li&gt;expanding array of supported sports&lt;/li&gt;&lt;/ul&gt;&lt;div&gt;&lt;br&gt;&lt;/div&gt;&lt;div&gt;ENTITIES:&lt;/div&gt;&lt;div&gt;&lt;ul&gt;&lt;li&gt;SPORTS&lt;/li&gt;&lt;li&gt;RULESETS&lt;/li&gt;&lt;li&gt;USERS&lt;/li&gt;&lt;li&gt;ORGANIZATIONS&lt;/li&gt;&lt;li&gt;TEAMS&lt;/li&gt;&lt;li&gt;EVENTS&lt;/li&gt;&lt;li&gt;COMPETITORS&lt;/li&gt;&lt;li&gt;COACHES&lt;/li&gt;&lt;li&gt;BRACKETS (EVENT, WEIGHT CLASS, SKILL LEVEL, SENIORITY, COMPETITORS = [ ])&lt;/li&gt;&lt;li&gt;PAYMENTS&lt;/li&gt;&lt;li&gt;MATCHES&lt;/li&gt;&lt;li&gt;RESULTS?&lt;/li&gt;&lt;li&gt;RANKINGS&lt;/li&gt;&lt;/ul&gt;&lt;div&gt;&lt;span style=&quot;&quot;&gt;&lt;span style=&quot;&quot;&gt;&amp;nbsp;&amp;nbsp;&amp;nbsp;&amp;nbsp;&lt;/span&gt;&lt;/span&gt;&lt;br&gt;&lt;/div&gt;&lt;/div&gt;&lt;div&gt;&lt;span style=&quot;&quot;&gt;&lt;span style=&quot;&quot;&gt;&amp;nbsp;&amp;nbsp;&amp;nbsp;&amp;nbsp;&lt;/span&gt;&lt;/span&gt;SPORTS:&lt;br&gt;&lt;/div&gt;&lt;div&gt;&lt;ul&gt;&lt;li&gt;Available sports (default BJJ) with respective rulesets&lt;/li&gt;&lt;/ul&gt;&lt;div&gt;&lt;br&gt;&lt;/div&gt;&lt;/div&gt;&lt;div&gt;&lt;span style=&quot;&quot;&gt;&lt;span style=&quot;&quot;&gt;&amp;nbsp;&amp;nbsp;&amp;nbsp;&amp;nbsp;&lt;/span&gt;&lt;/span&gt;RULESETS:&lt;/div&gt;&lt;div&gt;&lt;ul&gt;&lt;li&gt;&lt;span style=&quot;background-color: initial;&quot;&gt;List of rulesets to accomodate needs of different users/organizations&lt;/span&gt;&lt;/li&gt;&lt;/ul&gt;&lt;div&gt;&lt;span style=&quot;&quot;&gt;&lt;br&gt;&lt;/span&gt;&lt;/div&gt;&lt;/div&gt;&lt;div&gt;&lt;span style=&quot;&quot;&gt;&lt;span style=&quot;&quot;&gt;&lt;span style=&quot;&quot;&gt;&amp;nbsp;&amp;nbsp;&amp;nbsp;&amp;nbsp;&lt;/span&gt;&lt;/span&gt;EVENTS:&lt;br&gt;&lt;/span&gt;&lt;/div&gt;&lt;div&gt;&lt;ul&gt;&lt;li&gt;&lt;span style=&quot;&quot;&gt;Users will have the ability to organize events with specific rulesets&lt;/span&gt;&lt;/li&gt;&lt;li&gt;&lt;span style=&quot;&quot;&gt;Each event should have the following props:&lt;/span&gt;&lt;/li&gt;&lt;ul&gt;&lt;li&gt;&lt;span style=&quot;&quot;&gt;name: string&lt;/span&gt;&lt;/li&gt;&lt;li&gt;&lt;span style=&quot;&quot;&gt;sport: Sport &lt;/span&gt;&lt;/li&gt;&lt;li&gt;&lt;span style=&quot;&quot;&gt;description: string&lt;/span&gt;&lt;/li&gt;&lt;li&gt;&lt;span style=&quot;&quot;&gt;entry fee in USD: decimal&lt;/span&gt;&lt;/li&gt;&lt;li&gt;&lt;span style=&quot;&quot;&gt;location: string&lt;/span&gt;&lt;/li&gt;&lt;li&gt;&lt;span style=&quot;&quot;&gt;venue name: string&lt;/span&gt;&lt;/li&gt;&lt;li style=&quot;border-color: var(--border-color);&quot;&gt;competitors?: Competitor[]&lt;/li&gt;&lt;li&gt;dates taking place: DateOnly[] or DateTime[]&lt;/li&gt;&lt;li&gt;&lt;span style=&quot;&quot;&gt;starttime: DateTime&lt;/span&gt;&lt;/li&gt;&lt;li&gt;&lt;span style=&quot;&quot;&gt;endtime: DateTime&lt;/span&gt;&lt;/li&gt;&lt;li&gt;&lt;span style=&quot;&quot;&gt;availableWeightClasses: WeightClass[ ]&lt;/span&gt;&lt;/li&gt;&lt;li&gt;&lt;span style=&quot;&quot;&gt;availableSeniorities: Seniority[]&lt;/span&gt;&lt;/li&gt;&lt;li&gt;&lt;span style=&quot;&quot;&gt;available skill levels: SkillLevel[]&lt;/span&gt;&lt;/li&gt;&lt;li&gt;&lt;span style=&quot;&quot;&gt;brackets: Brackets[]&lt;/span&gt;&lt;/li&gt;&lt;li&gt;&lt;span style=&quot;&quot;&gt;prizes: string[]&lt;/span&gt;&lt;/li&gt;&lt;/ul&gt;&lt;/ul&gt;&lt;div&gt;&lt;br&gt;&lt;/div&gt;&lt;/div&gt;&lt;div&gt;&amp;nbsp; &amp;nbsp; &amp;nbsp;TEAMS:&lt;/div&gt;&lt;div&gt;&lt;ul&gt;&lt;li&gt;Teams will be able to register themselves and their members to the service&lt;/li&gt;&lt;li&gt;Props:&lt;/li&gt;&lt;ul&gt;&lt;li&gt;admin: User&lt;/li&gt;&lt;li&gt;coaches: Coach[]&lt;/li&gt;&lt;li&gt;competitors: Competitor[]&lt;/li&gt;&lt;li&gt;date registered: DateTime&lt;/li&gt;&lt;li&gt;competition history&lt;/li&gt;&lt;/ul&gt;&lt;/ul&gt;&lt;div&gt;&lt;span style=&quot;&quot;&gt;&lt;span style=&quot;&quot;&gt;&amp;nbsp;&amp;nbsp;&amp;nbsp;&amp;nbsp;&lt;/span&gt;&lt;/span&gt;&lt;br&gt;&lt;/div&gt;&lt;/div&gt;&lt;div&gt;&lt;span style=&quot;&quot;&gt;&lt;span style=&quot;&quot;&gt;&amp;nbsp;&amp;nbsp;&amp;nbsp;&amp;nbsp;&lt;/span&gt;&lt;/span&gt;ORGANIZATIONS:&lt;br&gt;&lt;/div&gt;&lt;div&gt;&lt;ul&gt;&lt;li&gt;Possibly related to teams (one to many) or standalone entities who organize events&lt;/li&gt;&lt;/ul&gt;&lt;div&gt;&lt;span style=&quot;&quot;&gt;&lt;span style=&quot;&quot;&gt;&amp;nbsp;&amp;nbsp;&amp;nbsp;&amp;nbsp;&lt;/span&gt;&lt;/span&gt;&lt;br&gt;&lt;/div&gt;&lt;/div&gt;&lt;div&gt;&lt;span style=&quot;&quot;&gt;&lt;span style=&quot;&quot;&gt;&amp;nbsp;&amp;nbsp;&amp;nbsp;&amp;nbsp;&lt;/span&gt;&lt;/span&gt;USERS:&lt;br&gt;&lt;/div&gt;&lt;div&gt;&lt;ul&gt;&lt;li&gt;Represents application user during session&lt;/li&gt;&lt;li&gt;Props:&lt;/li&gt;&lt;ul&gt;&lt;li&gt;first name: string&lt;/li&gt;&lt;li&gt;middle name: string&lt;/li&gt;&lt;li&gt;last name: string&lt;/li&gt;&lt;li&gt;username: string&lt;/li&gt;&lt;li&gt;password: string&lt;/li&gt;&lt;li&gt;competitor: Competitor&lt;/li&gt;&lt;li&gt;coach: Coach&lt;/li&gt;&lt;/ul&gt;&lt;/ul&gt;&lt;div&gt;&lt;span style=&quot;&quot;&gt;&lt;span style=&quot;&quot;&gt;&amp;nbsp;&amp;nbsp;&amp;nbsp;&amp;nbsp;&lt;/span&gt;&lt;/span&gt;&lt;br&gt;&lt;/div&gt;&lt;/div&gt;&lt;div&gt;&lt;span style=&quot;&quot;&gt;&lt;span style=&quot;&quot;&gt;&amp;nbsp;&amp;nbsp;&amp;nbsp;&amp;nbsp;&lt;/span&gt;&lt;/span&gt;COMPETITORS:&lt;br&gt;&lt;/div&gt;&lt;div&gt;&lt;ul&gt;&lt;li&gt;Represents person who is able to compete at events&lt;/li&gt;&lt;li&gt;Props:&lt;/li&gt;&lt;ul&gt;&lt;li&gt;first name: string&lt;/li&gt;&lt;li&gt;middle name: string&lt;/li&gt;&lt;li&gt;last name: string&lt;/li&gt;&lt;li&gt;gender: enum&lt;/li&gt;&lt;li&gt;date of birth: DateOnly or DateTime&lt;/li&gt;&lt;li&gt;skill levels: SkillLevel[]&lt;/li&gt;&lt;li&gt;teams: Team[]&lt;/li&gt;&lt;li&gt;event history: Event[]&lt;/li&gt;&lt;li&gt;registered future events: Event[]&lt;/li&gt;&lt;/ul&gt;&lt;/ul&gt;&lt;div&gt;&lt;br&gt;&lt;/div&gt;&lt;/div&gt;&lt;div&gt;&lt;br&gt;&lt;/div&gt;&lt;div&gt;&lt;span style=&quot;&quot;&gt;&lt;span style=&quot;&quot;&gt;&amp;nbsp;&amp;nbsp;&amp;nbsp;&amp;nbsp;&lt;/span&gt;&lt;/span&gt;COACHES:&lt;br&gt;&lt;/div&gt;&lt;div&gt;&lt;ul&gt;&lt;li&gt;Represent team coaches:&lt;/li&gt;&lt;li&gt;Props:&lt;/li&gt;&lt;ul&gt;&lt;li style=&quot;border-color: var(--border-color);&quot;&gt;first name: string&lt;/li&gt;&lt;li style=&quot;border-color: var(--border-color);&quot;&gt;middle name: string&lt;/li&gt;&lt;li style=&quot;border-color: var(--border-color);&quot;&gt;last name: string&lt;/li&gt;&lt;li style=&quot;border-color: var(--border-color);&quot;&gt;gender: enum&lt;/li&gt;&lt;li style=&quot;border-color: var(--border-color);&quot;&gt;date of birth: DateOnly or DateTime&lt;/li&gt;&lt;li style=&quot;border-color: var(--border-color);&quot;&gt;teams: Team[]&lt;/li&gt;&lt;/ul&gt;&lt;/ul&gt;&lt;div&gt;&lt;br&gt;&lt;/div&gt;&lt;/div&gt;&lt;div&gt;&lt;span style=&quot;&quot;&gt;&lt;span style=&quot;white-space: pre;&quot;&gt;&amp;nbsp;&amp;nbsp;&amp;nbsp;&amp;nbsp;&lt;/span&gt;&lt;/span&gt;PAYMENTS:&lt;br&gt;&lt;/div&gt;&lt;div&gt;&lt;ul&gt;&lt;li&gt;Represents transaction made by user:&lt;/li&gt;&lt;li&gt;Props:&lt;/li&gt;&lt;ul&gt;&lt;li&gt;user: User&lt;/li&gt;&lt;li&gt;type: enum(user register, event register, team register, organization register)&lt;/li&gt;&lt;li&gt;isRefund: boolean&lt;/li&gt;&lt;li&gt;amount: decimal&lt;/li&gt;&lt;li&gt;dateOfTransaction: DateTime&lt;/li&gt;&lt;li&gt;description: string&lt;/li&gt;&lt;li&gt;breacket?: Bracket&lt;/li&gt;&lt;li&gt;team?: Team&lt;/li&gt;&lt;li&gt;organization?: Organization&lt;/li&gt;&lt;/ul&gt;&lt;/ul&gt;&lt;/div&gt;&lt;p&gt;&lt;/p&gt;" style="text;html=1;spacing=5;spacingTop=-20;whiteSpace=wrap;overflow=hidden;rounded=0;" parent="1" vertex="1">
          <mxGeometry x="80" y="40" width="2170" height="2120" as="geometry" />
        </mxCell>
      </root>
    </mxGraphModel>
  </diagram>
</mxfile>
